<svg version="1.1" viewBox="0 0 640 400" xmlns="http://www.w3.org/2000/svg" xmlns:xlink="http://www.w3.org/1999/xlink" xmlns:svgjs="http://svgjs.dev/svgjs">
  <g viewBox="0 0 640 400">
    <svg viewBox="0 0 640 400" data-background-color="#444444" preserveAspectRatio="xMidYMid meet" height="400" width="640" xmlns="http://www.w3.org/2000/svg" xmlns:xlink="http://www.w3.org/1999/xlink">


      <rect width="640" height="400" x="0" y="0" opacity="1" fill="#444444" data-fill-palette-color="background" id="background"></rect>


      <g id="tight-bounds" transform="matrix(1,0,0,1,122.24000000000001,101.83281760606398)">
        <svg viewBox="0 0 395.52 196.33436478787203" height="196.33436478787203" width="395.52">
          <svg viewBox="0 0 473.7855245609958 235.18502227541427" height="196.33436478787203" width="395.52">
            <rect
                width="8.254815691522106"
                height="235.18502227541427"
                x="182.91272791894738"
                y="0"
                fill="#ffffff"
                opacity="1"
                stroke-width="0"
                stroke="transparent"
                fill-opacity="1"
                class="rect-r-0"
                data-fill-palette-color="primary"
                rx="1%"
                id="r-0"
                data-palette-color="#ffffff"
            ></rect>              
              <g transform="matrix(1,0,0,1,212.77700877152213,0.5850373688442971)">
                <svg viewBox="0 0 261.0085157894737 234.01494753772567" height="234.01494753772567" width="261.0085157894737">
                  <g id="textblocktransform">
                    <svg viewBox="0 0 261.0085157894737 234.01494753772567" height="234.01494753772567" width="261.0085157894737" id="textblock">
                      <g>
                        <svg viewBox="0 0 261.0085157894737 198.764" height="198.764" width="261.0085157894737">
                          <g transform="matrix(1,0,0,1,0,0)">
                            <svg width="261.0085157894737" viewBox="1.6999995708465576 -33.55000305175781 99.80001068115234 72.5" height="198.764" data-palette-color="#ffffff">
                              <g class="wordmark-text-0" data-fill-palette-color="primary" id="text-0">
                                <path
                                  xmlns="http://www.w3.org/2000/svg"
                                  d="M4.55 0.25c-0.267 0-0.4-0.45-0.4-1.35v0c-0.133-2.3-0.2-5.2-0.2-8.7v0c0-2.2 0.017-4.167 0.05-5.9v0l0.05-5.9c0-2.533-0.067-5.667-0.2-9.4v0c-0.3-0.267-0.45-0.6-0.45-1v0c0-0.233 0.143-0.477 0.43-0.73 0.28-0.247 0.537-0.37 0.77-0.37v0c0.267 0 0.517 0.133 0.75 0.4v0l0.55 0.45c0.2 0.1 0.583 0.2 1.15 0.3v0c0.567 0.1 0.967 0.2 1.2 0.3v0c0.5 0.267 1.167 0.783 2 1.55v0c0.8 0.8 1.35 1.3 1.65 1.5v0l-0.05 0.1c0.033 0.2 0.283 0.633 0.75 1.3v0c0.367 0.5 0.667 0.967 0.9 1.4v0c0.533 1.533 0.8 3.517 0.8 5.95v0c0 0.433-0.017 0.817-0.05 1.15v0 1.2 0.4l-0.05 0.5c0 0.633 0.1 1.133 0.3 1.5v0c-0.2 1.067-0.45 3.083-0.75 6.05v0c-0.1 0.867-0.267 1.783-0.5 2.75-0.233 0.967-0.517 1.767-0.85 2.4v0c-0.867 1.633-2.317 3.017-4.35 4.15v0zM6.3-1.2h1.55c0.233-0.267 0.45-0.483 0.65-0.65v0c0 0 0.117-0.083 0.35-0.25v0l0.4-0.35c2.333-2.1 3.5-6.1 3.5-12v0-0.95c-0.033-0.267-0.05-0.55-0.05-0.85v0l-0.2-5.05c-0.1-1.933-0.683-3.933-1.75-6v0c-0.5-1.033-1.177-1.877-2.03-2.53-0.847-0.647-1.737-0.97-2.67-0.97v0c-0.4 0-0.6 3.083-0.6 9.25v0c0 7.133 0.2 13.35 0.6 18.65v0l-0.05 0.95 0.2 0.1zM23.7 0c-0.767 0-1.217-0.167-1.35-0.5v0c-0.167 0-0.3 0.017-0.4 0.05v0h-0.4c-0.733 0-1.2-0.167-1.4-0.5v0c0-0.233 0.133-0.433 0.4-0.6v0l0.25-0.25h1.45l0.2-0.2 0.1-0.45 0.05-0.6c0-2.033-0.05-3.85-0.15-5.45v0l-0.1-1.85-0.1-3.65c0-1.3 0.05-3.25 0.15-5.85v0l0.1-5.8c0-2.533-0.083-4.467-0.25-5.8v0c-0.3-0.1-0.8-0.15-1.5-0.15v0l-0.55 0.05c-0.2 0.033-0.417 0.05-0.65 0.05v0c-0.633 0-0.95-0.283-0.95-0.85v0c0-0.133 0.15-0.267 0.45-0.4 0.3-0.133 0.55-0.2 0.75-0.2v0c1.267 0 2.533 0.067 3.8 0.2v0c0.767 0.033 1.533 0.183 2.3 0.45v0c0.6 0.2 0.9 0.483 0.9 0.85v0c0 0.067-0.05 0.2-0.15 0.4v0l-1.15 0.1c-0.233-0.2-0.717-0.3-1.45-0.3v0l-0.25 0.15c0.1 0.3 0.15 1.183 0.15 2.65v0c0 2.2-0.017 4.183-0.05 5.95v0l-0.1 5.95c0 1.5 0.067 3.317 0.2 5.45v0c0.1 2.433 0.15 4.267 0.15 5.5v0 0.65c-0.033 0.233-0.05 0.533-0.05 0.9v0c0 0.767 0.05 1.233 0.15 1.4v0l-0.05 0.1c0 0.333 0.367 0.5 1.1 0.5v0c0.3 0 0.55-0.017 0.75-0.05v0h0.75c0.967 0 1.45 0.233 1.45 0.7v0c0 0.3-0.1 0.54-0.3 0.72-0.2 0.187-0.467 0.28-0.8 0.28v0c-0.3 0-0.567-0.033-0.8-0.1v0c-0.267-0.033-0.55-0.05-0.85-0.05v0c-0.2 0-0.5 0.083-0.9 0.25v0c-0.4 0.2-0.7 0.3-0.9 0.3zM38.75 0.35c-1.533 0-2.667-0.183-3.4-0.55-0.733-0.367-1.273-1.077-1.62-2.13-0.353-1.047-0.663-2.72-0.93-5.02v0c-0.4-3.367-0.6-5.983-0.6-7.85v0c0-1.133 0.067-2.433 0.2-3.9v0l0.3-3.15c0.167-2.5 0.36-4.393 0.58-5.68 0.213-1.28 0.697-2.413 1.45-3.4 0.747-0.98 1.903-1.553 3.47-1.72v0c0.167-0.033 0.433-0.05 0.8-0.05v0c1.033 0 1.55 0.233 1.55 0.7v0c0 0.2-0.107 0.373-0.32 0.52-0.22 0.153-0.447 0.23-0.68 0.23v0l-0.5-0.05-0.45-0.05c-0.567 0-1.073 0.183-1.52 0.55-0.453 0.367-0.83 0.9-1.13 1.6v0c-0.7 1.667-1.15 3.3-1.35 4.9v0c-0.267 2.1-0.433 3.933-0.5 5.5v0l-0.05 3.85c0 1.633 0.05 2.85 0.15 3.65v0c0.233 0.367 0.393 0.923 0.48 1.67 0.08 0.753 0.153 1.78 0.22 3.08v0c0.067 1.167 0.217 2.157 0.45 2.97 0.233 0.82 0.65 1.497 1.25 2.03v0c0.667 0.567 1.583 0.85 2.75 0.85v0c0.967 0 1.65-0.533 2.05-1.6v0c0.467-1.133 0.733-2.3 0.8-3.5v0c0.1-1.5 0.15-2.767 0.15-3.8v0-2.75c-0.333-0.333-0.917-0.5-1.75-0.5v0h-0.4c-0.167 0.033-0.35 0.05-0.55 0.05v0c-0.8 0-1.2-0.2-1.2-0.6v0c0-0.567 0.4-0.85 1.2-0.85v0c0.567 0 1.033 0.017 1.4 0.05v0l1.1 0.05c0.633 0.1 1.133 0.217 1.5 0.35v0c0.4 0.133 0.6 0.317 0.6 0.55v0c0 0.433-0.1 1.05-0.3 1.85v0c-0.167 0.933-0.25 1.567-0.25 1.9v0c0 1.4 0.033 2.667 0.1 3.8v0c0.033 1.167 0.05 2.45 0.05 3.85v0c-1.7 1.733-3.4 2.6-5.1 2.6zM52.5 0c-0.767 0-1.217-0.167-1.35-0.5v0c-0.167 0-0.3 0.017-0.4 0.05v0h-0.4c-0.733 0-1.2-0.167-1.4-0.5v0c0-0.233 0.133-0.433 0.4-0.6v0l0.25-0.25h1.45l0.2-0.2 0.1-0.45 0.05-0.6c0-2.033-0.05-3.85-0.15-5.45v0l-0.1-1.85-0.1-3.65c0-1.3 0.05-3.25 0.15-5.85v0l0.1-5.8c0-2.533-0.083-4.467-0.25-5.8v0c-0.3-0.1-0.8-0.15-1.5-0.15v0l-0.55 0.05c-0.2 0.033-0.417 0.05-0.65 0.05v0c-0.633 0-0.95-0.283-0.95-0.85v0c0-0.133 0.15-0.267 0.45-0.4 0.3-0.133 0.55-0.2 0.75-0.2v0c1.267 0 2.533 0.067 3.8 0.2v0c0.767 0.033 1.533 0.183 2.3 0.45v0c0.6 0.2 0.9 0.483 0.9 0.85v0c0 0.067-0.05 0.2-0.15 0.4v0l-1.15 0.1c-0.233-0.2-0.717-0.3-1.45-0.3v0l-0.25 0.15c0.1 0.3 0.15 1.183 0.15 2.65v0c0 2.2-0.017 4.183-0.05 5.95v0l-0.1 5.95c0 1.5 0.067 3.317 0.2 5.45v0c0.1 2.433 0.15 4.267 0.15 5.5v0 0.65c-0.033 0.233-0.05 0.533-0.05 0.9v0c0 0.767 0.05 1.233 0.15 1.4v0l-0.05 0.1c0 0.333 0.367 0.5 1.1 0.5v0c0.3 0 0.55-0.017 0.75-0.05v0h0.75c0.967 0 1.45 0.233 1.45 0.7v0c0 0.3-0.1 0.54-0.3 0.72-0.2 0.187-0.467 0.28-0.8 0.28v0c-0.3 0-0.567-0.033-0.8-0.1v0c-0.267-0.033-0.55-0.05-0.85-0.05v0c-0.2 0-0.5 0.083-0.9 0.25v0c-0.4 0.2-0.7 0.3-0.9 0.3zM65.5-0.3l-0.55-0.4-0.05-1.85c-0.033-0.533-0.05-1.133-0.05-1.8v0c0-0.333 0.017-0.617 0.05-0.85v0l0.05-0.9c0-0.333-0.067-0.733-0.2-1.2v0c0-2.233-0.167-6.383-0.5-12.45v0c-0.333-5.867-0.517-9.85-0.55-11.95v0c-2.067 0-3.45-0.05-4.15-0.15v0c-0.667-0.167-1-0.433-1-0.8v0c0.167-0.367 0.483-0.55 0.95-0.55v0c1 0 2.45 0.067 4.35 0.2v0c1.733 0.167 3.183 0.25 4.35 0.25v0h1.05l1.05-0.05c0.6 0 0.9 0.217 0.9 0.65v0c0 0.2-0.107 0.357-0.32 0.47-0.22 0.12-0.48 0.18-0.78 0.18v0c-0.667 0-1.367-0.033-2.1-0.1v0l-2.15-0.1c-0.133 0-0.2 0.05-0.2 0.15v0c-0.033 0.1-0.05 0.417-0.05 0.95v0c0 3.233 0.2 8.133 0.6 14.7v0c0.367 6.8 0.55 11.683 0.55 14.65v0c0 0.233-0.14 0.45-0.42 0.65-0.287 0.2-0.563 0.3-0.83 0.3zM86.35 0.45c-0.5 0-0.817-0.057-0.95-0.17-0.133-0.12-0.233-0.43-0.3-0.93v0c-0.3-2.433-0.483-3.95-0.55-4.55v0l-0.25-2c-0.733-0.167-1.567-0.25-2.5-0.25v0l-1.8-0.1c-0.8-0.1-1.383-0.15-1.75-0.15v0c-0.2 0-0.317 0.083-0.35 0.25v0c0 0.1-0.017 0.15-0.05 0.15v0l-0.1 1c-0.033 0.6-0.217 1.8-0.55 3.6v0c-0.167 0.9-0.367 1.6-0.6 2.1v0c-0.267 0.567-0.517 0.85-0.75 0.85v0c-0.2 0-0.417-0.093-0.65-0.28-0.233-0.18-0.35-0.37-0.35-0.57v0l0.05-0.15 0.05-0.15c0.6-2.367 1.1-4.717 1.5-7.05v0l0.6-3.1 0.6-3.8c0 0 0.183-1.1 0.55-3.3v0c0.167-0.9 0.467-2.35 0.9-4.35v0c0.467-2.267 0.75-3.817 0.85-4.65v0c0.033-0.1 0.1-0.717 0.2-1.85v0c0.133-1.267 0.25-2.2 0.35-2.8v0c0.1-0.867 0.2-1.367 0.3-1.5v0h0.35c0.1 0.033 0.217 0.05 0.35 0.05v0c0.4 0 0.7-0.1 0.9-0.3v0c0.233 0 0.443 0.073 0.63 0.22 0.18 0.153 0.27 0.33 0.27 0.53v0c0 1.6 0.117 3.433 0.35 5.5v0c0.133 1.067 0.233 1.95 0.3 2.65v0c0.367 4.3 1.3 12.367 2.8 24.2v0 0.15c0 0.333-0.133 0.583-0.4 0.75zM83.55-8.55h0.5c-0.333-4.8-0.967-11.883-1.9-21.25v0l-2.7 13.35c-0.767 3.833-1.15 6.25-1.15 7.25v0c0 0.167 0.633 0.317 1.9 0.45 1.267 0.133 2.383 0.2 3.35 0.2zM93.05 0.65c-0.467 0-0.75-0.383-0.85-1.15v0c0.067-0.2 0.1-0.75 0.1-1.65v0c0-3.067 0.05-7.617 0.15-13.65v0c0.1-6 0.15-10.333 0.15-13v0l0.1-1.8 0.15-1.5c0-0.233 0.117-0.35 0.35-0.35v0c0.167 0 0.4 0.05 0.7 0.15v0l0.15 0.05c0 0.733-0.017 1.4-0.05 2v0 1.95 5.45c0.033 1.6 0.05 3.417 0.05 5.45v0c-0.033 0.167-0.05 0.533-0.05 1.1v0l-0.05 1.05c-0.033 0.667-0.05 1.35-0.05 2.05v0c0 0.767 0.017 1.467 0.05 2.1v0l0.05 2.15-0.15 0.4 0.05-0.05c0 0.1-0.017 0.167-0.05 0.2v0 0.2c0 0.267 0.05 0.5 0.15 0.7v0l-0.15 4.8v0.3c0 0.567 0.017 0.9 0.05 1v0c0 0.167 0.083 0.25 0.25 0.25v0l2.6 0.1c0.767 0 1.293 0.007 1.58 0.02 0.28 0.02 0.453 0.03 0.52 0.03v0h0.15c0.167 0 0.333 0.09 0.5 0.27 0.167 0.187 0.25 0.38 0.25 0.58v0c0 0.4-0.267 0.617-0.8 0.65v0c-0.567-0.033-1.95-0.05-4.15-0.05v0l0.1 0.05c-0.333 0-0.65 0.017-0.95 0.05v0c-0.267 0.067-0.567 0.1-0.9 0.1z"
                                  fill="#ffffff"
                                  fill-rule="nonzero"
                                  stroke="none"
                                  stroke-width="1"
                                  stroke-linecap="butt"
                                  stroke-linejoin="miter"
                                  stroke-miterlimit="10"
                                  stroke-dasharray=""
                                  stroke-dashoffset="0"
                                  font-family="none"
                                  font-weight="none"
                                  font-size="none"
                                  text-anchor="none"
                                  style="mix-blend-mode: normal;"
                                  data-fill-palette-color="primary"
                                  opacity="1"
                                ></path>
                                <path
                                  xmlns="http://www.w3.org/2000/svg"
                                  d="M8.05 38.6l-0.55-0.45c0-2.567-0.407-6.35-1.22-11.35-0.82-5-1.897-10.467-3.23-16.4v0l-0.4-1.55-0.65-2.3c-0.2-0.7-0.3-1.133-0.3-1.3v0c0-0.1 0.077-0.227 0.23-0.38 0.147-0.147 0.287-0.22 0.42-0.22v0c0.467 0 0.833 0.517 1.1 1.55v0c0.133 0.433 0.26 0.923 0.38 1.47 0.113 0.553 0.203 0.947 0.27 1.18v0c0.067 0.5 0.117 0.8 0.15 0.9v0c0.633 2.567 1.017 4.2 1.15 4.9v0l0.5 2.55 0.45 2.4 0.45 2.55c0.1 0.9 0.233 1.683 0.4 2.35v0l0.75 4.9c0 0.133 0.117 0.983 0.35 2.55v0l0.35 2.45c0.667-2.167 1.233-5.467 1.7-9.9v0c0.467-4.133 1.133-8.283 2-12.45v0c0.733-3.6 1.25-6.217 1.55-7.85v0l0.65-0.25c0.133 0.033 0.26 0.1 0.38 0.2 0.113 0.1 0.17 0.2 0.17 0.3v0c0 0.733-0.15 1.733-0.45 3v0l-0.3 1.3-0.85 3.95c-0.5 2.167-0.84 3.833-1.02 5-0.187 1.167-0.397 2.85-0.63 5.05v0l-0.1 1.15c-0.167 1.8-0.29 3.017-0.37 3.65-0.087 0.633-0.28 1.45-0.58 2.45v0c-0.267 1-0.483 1.883-0.65 2.65v0l-0.1 1.15c-0.067 1.167-0.2 2.2-0.4 3.1v0c-0.267 1.133-0.8 1.7-1.6 1.7zM8.6 34.75v-0.2l-0.05 0.1zM26.6 38.95c-3.9 0-5.85-6.133-5.85-18.4v0-1.75c0-9.3 1.2-13.95 3.6-13.95v0c0.167 0 0.4 0.05 0.7 0.15v0c1.067 0.367 2.117 0.6 3.15 0.7v0c0.633 0.133 1.267 0.783 1.9 1.95v0c0.7 1.2 1.227 2.783 1.58 4.75 0.347 1.967 0.52 3.983 0.52 6.05v0l-0.1 0.25c0 1.1 0.017 2.083 0.05 2.95v0l0.05 3c0 1.7-0.067 3.233-0.2 4.6v0c-0.2 2.067-0.533 3.85-1 5.35v0c-0.3 0.9-0.64 1.65-1.02 2.25-0.387 0.6-0.863 1.1-1.43 1.5v0c-0.533 0.4-1.183 0.6-1.95 0.6zM26.4 37.5c1.3 0 2.267-0.917 2.9-2.75v0c0.633-1.867 1.017-3.767 1.15-5.7v0c0.133-2 0.2-3.6 0.2-4.8v0c0-1.333-0.1-3.3-0.3-5.9v0c-0.167-2.9-0.25-4.867-0.25-5.9v0l-0.2-0.4 0.1-0.25c0-1.467-0.407-2.733-1.22-3.8-0.82-1.067-1.813-1.6-2.98-1.6v0c-1.533 0-2.45 0.733-2.75 2.2v0c-0.067 0.5-0.133 1.217-0.2 2.15v0c0 2.467-0.1 4.15-0.3 5.05v0c0 0.5-0.05 1.283-0.15 2.35v0l-0.1 2.35c0 0.733 0.017 1.383 0.05 1.95v0l0.05 2c0 1.567 0.133 3.367 0.4 5.4v0c0.2 1.5 0.433 2.767 0.7 3.8 0.267 1.033 0.65 1.917 1.15 2.65v0c0.5 0.8 1.083 1.2 1.75 1.2zM43.9 38.95c-3.9 0-5.85-6.133-5.85-18.4v0-1.75c0-9.3 1.2-13.95 3.6-13.95v0c0.167 0 0.4 0.05 0.7 0.15v0c1.067 0.367 2.117 0.6 3.15 0.7v0c0.633 0.133 1.267 0.783 1.9 1.95v0c0.7 1.2 1.227 2.783 1.58 4.75 0.347 1.967 0.52 3.983 0.52 6.05v0l-0.1 0.25c0 1.1 0.017 2.083 0.05 2.95v0l0.05 3c0 1.7-0.067 3.233-0.2 4.6v0c-0.2 2.067-0.533 3.85-1 5.35v0c-0.3 0.9-0.64 1.65-1.02 2.25-0.387 0.6-0.863 1.1-1.43 1.5v0c-0.533 0.4-1.183 0.6-1.95 0.6zM43.7 37.5c1.3 0 2.267-0.917 2.9-2.75v0c0.633-1.867 1.017-3.767 1.15-5.7v0c0.133-2 0.2-3.6 0.2-4.8v0c0-1.333-0.1-3.3-0.3-5.9v0c-0.167-2.9-0.25-4.867-0.25-5.9v0l-0.2-0.4 0.1-0.25c0-1.467-0.407-2.733-1.22-3.8-0.82-1.067-1.813-1.6-2.98-1.6v0c-1.533 0-2.45 0.733-2.75 2.2v0c-0.067 0.5-0.133 1.217-0.2 2.15v0c0 2.467-0.1 4.15-0.3 5.05v0c0 0.5-0.05 1.283-0.15 2.35v0l-0.1 2.35c0 0.733 0.017 1.383 0.05 1.95v0l0.05 2c0 1.567 0.133 3.367 0.4 5.4v0c0.2 1.5 0.433 2.767 0.7 3.8 0.267 1.033 0.65 1.917 1.15 2.65v0c0.5 0.8 1.083 1.2 1.75 1.2zM56.95 38.25c-0.267 0-0.4-0.45-0.4-1.35v0c-0.133-2.3-0.2-5.2-0.2-8.7v0c0-2.2 0.017-4.167 0.05-5.9v0l0.05-5.9c0-2.533-0.067-5.667-0.2-9.4v0c-0.3-0.267-0.45-0.6-0.45-1v0c0-0.233 0.143-0.477 0.43-0.73 0.28-0.247 0.537-0.37 0.77-0.37v0c0.267 0 0.517 0.133 0.75 0.4v0l0.55 0.45c0.2 0.1 0.583 0.2 1.15 0.3v0c0.567 0.1 0.967 0.2 1.2 0.3v0c0.5 0.267 1.167 0.783 2 1.55v0c0.8 0.8 1.35 1.3 1.65 1.5v0l-0.05 0.1c0.033 0.2 0.283 0.633 0.75 1.3v0c0.367 0.5 0.667 0.967 0.9 1.4v0c0.533 1.533 0.8 3.517 0.8 5.95v0c0 0.433-0.017 0.817-0.05 1.15v0 1.2 0.4l-0.05 0.5c0 0.633 0.1 1.133 0.3 1.5v0c-0.2 1.067-0.45 3.083-0.75 6.05v0c-0.1 0.867-0.267 1.783-0.5 2.75-0.233 0.967-0.517 1.767-0.85 2.4v0c-0.867 1.633-2.317 3.017-4.35 4.15v0zM58.7 36.8h1.55c0.233-0.267 0.45-0.483 0.65-0.65v0c0 0 0.117-0.083 0.35-0.25v0l0.4-0.35c2.333-2.1 3.5-6.1 3.5-12v0-0.95c-0.033-0.267-0.05-0.55-0.05-0.85v0l-0.2-5.05c-0.1-1.933-0.683-3.933-1.75-6v0c-0.5-1.033-1.173-1.877-2.02-2.53-0.853-0.647-1.747-0.97-2.68-0.97v0c-0.4 0-0.6 3.083-0.6 9.25v0c0 7.133 0.2 13.35 0.6 18.65v0l-0.05 0.95 0.2 0.1zM78.6 38.95c-3.9 0-5.85-6.133-5.85-18.4v0-1.75c0-9.3 1.2-13.95 3.6-13.95v0c0.167 0 0.4 0.05 0.7 0.15v0c1.067 0.367 2.117 0.6 3.15 0.7v0c0.633 0.133 1.267 0.783 1.9 1.95v0c0.7 1.2 1.227 2.783 1.58 4.75 0.347 1.967 0.52 3.983 0.52 6.05v0l-0.1 0.25c0 1.1 0.017 2.083 0.05 2.95v0l0.05 3c0 1.7-0.067 3.233-0.2 4.6v0c-0.2 2.067-0.533 3.85-1 5.35v0c-0.3 0.9-0.64 1.65-1.02 2.25-0.387 0.6-0.863 1.1-1.43 1.5v0c-0.533 0.4-1.183 0.6-1.95 0.6zM78.4 37.5c1.3 0 2.267-0.917 2.9-2.75v0c0.633-1.867 1.017-3.767 1.15-5.7v0c0.133-2 0.2-3.6 0.2-4.8v0c0-1.333-0.1-3.3-0.3-5.9v0c-0.167-2.9-0.25-4.867-0.25-5.9v0l-0.2-0.4 0.1-0.25c0-1.467-0.407-2.733-1.22-3.8-0.82-1.067-1.813-1.6-2.98-1.6v0c-1.533 0-2.45 0.733-2.75 2.2v0c-0.067 0.5-0.133 1.217-0.2 2.15v0c0 2.467-0.1 4.15-0.3 5.05v0c0 0.5-0.05 1.283-0.15 2.35v0l-0.1 2.35c0 0.733 0.017 1.383 0.05 1.95v0l0.05 2c0 1.567 0.133 3.367 0.4 5.4v0c0.2 1.5 0.433 2.767 0.7 3.8 0.267 1.033 0.65 1.917 1.15 2.65v0c0.5 0.8 1.083 1.2 1.75 1.2zM95.9 38.95c-3.9 0-5.85-6.133-5.85-18.4v0-1.75c0-9.3 1.2-13.95 3.6-13.95v0c0.167 0 0.4 0.05 0.7 0.15v0c1.067 0.367 2.117 0.6 3.15 0.7v0c0.633 0.133 1.267 0.783 1.9 1.95v0c0.7 1.2 1.227 2.783 1.58 4.75 0.347 1.967 0.52 3.983 0.52 6.05v0l-0.1 0.25c0 1.1 0.017 2.083 0.05 2.95v0l0.05 3c0 1.7-0.067 3.233-0.2 4.6v0c-0.2 2.067-0.533 3.85-1 5.35v0c-0.3 0.9-0.64 1.65-1.02 2.25-0.387 0.6-0.863 1.1-1.43 1.5v0c-0.533 0.4-1.183 0.6-1.95 0.6zM95.7 37.5c1.3 0 2.267-0.917 2.9-2.75v0c0.633-1.867 1.017-3.767 1.15-5.7v0c0.133-2 0.2-3.6 0.2-4.8v0c0-1.333-0.1-3.3-0.3-5.9v0c-0.167-2.9-0.25-4.867-0.25-5.9v0l-0.2-0.4 0.1-0.25c0-1.467-0.407-2.733-1.22-3.8-0.82-1.067-1.813-1.6-2.98-1.6v0c-1.533 0-2.45 0.733-2.75 2.2v0c-0.067 0.5-0.133 1.217-0.2 2.15v0c0 2.467-0.1 4.15-0.3 5.05v0c0 0.5-0.05 1.283-0.15 2.35v0l-0.1 2.35c0 0.733 0.017 1.383 0.05 1.95v0l0.05 2c0 1.567 0.133 3.367 0.4 5.4v0c0.2 1.5 0.433 2.767 0.7 3.8 0.267 1.033 0.65 1.917 1.15 2.65v0c0.5 0.8 1.083 1.2 1.75 1.2z"
                                  fill="#ffffff"
                                  fill-rule="nonzero"
                                  stroke="none"
                                  stroke-width="1"
                                  stroke-linecap="butt"
                                  stroke-linejoin="miter"
                                  stroke-miterlimit="10"
                                  stroke-dasharray=""
                                  stroke-dashoffset="0"
                                  font-family="none"
                                  font-weight="none"
                                  font-size="none"
                                  text-anchor="none"
                                  style="mix-blend-mode: normal;"
                                  data-fill-palette-color="primary"
                                  opacity="1"
                                ></path>
                              </g>
                            </svg>
                          </g>
                        </svg>
                      </g>
                      <g transform="matrix(1,0,0,1,0,220.37346516105265)">
                        <svg viewBox="0 0 153.23809961999999 13.641482376673027" height="13.641482376673027" width="153.23809961999999">
                          <g transform="matrix(1,0,0,1,0,0)">
                            <svg width="153.23809961999999" viewBox="2.049999952316284 -31.5 418.9300231933594 37.29999923706055" height="13.641482376673027" data-palette-color="#00d1cd">
                              <path
                                d="M8 0.3L8 0.3Q5.4 0.3 3.75-0.95 2.1-2.2 2.1-4.95L2.1-4.95 2.1-8.3 2.9-8.3 2.9-4.95Q2.9-2.75 4.33-1.63 5.75-0.5 8-0.5L8-0.5Q10.35-0.5 11.78-1.5 13.2-2.5 13.2-4.8L13.2-4.8 13.2-6.7Q13.2-8.6 12.4-9.68 11.6-10.75 10.38-11.43 9.15-12.1 7.75-12.7L7.75-12.7Q6.2-13.4 4.9-14.1 3.6-14.8 2.83-15.83 2.05-16.85 2.05-18.5L2.05-18.5 2.05-20.2Q2.05-22.3 3.65-23.7 5.25-25.1 8.1-25.1L8.1-25.1Q10.7-25.1 12.38-23.93 14.05-22.75 14.05-20.05L14.05-20.05 14.05-16.8 13.25-16.8 13.25-19.75Q13.25-22.15 11.93-23.23 10.6-24.3 8.1-24.3L8.1-24.3Q5.6-24.3 4.23-23.05 2.85-21.8 2.85-19.75L2.85-19.75 2.85-18.85Q2.85-17.2 3.7-16.2 4.55-15.2 5.75-14.58 6.95-13.95 8-13.45L8-13.45Q9.5-12.8 10.88-12.03 12.25-11.25 13.13-10.03 14-8.8 14-6.7L14-6.7 14-4.8Q14-2.85 13.15-1.75 12.3-0.65 10.95-0.18 9.6 0.3 8 0.3ZM25.05 0.35L25.05 0.35Q22.9 0.35 21.67-0.23 20.45-0.8 19.9-1.75 19.35-2.7 19.2-3.88 19.05-5.05 19.05-6.2L19.05-6.2 19.05-18.6Q19.05-19.75 19.2-20.9 19.35-22.05 19.92-23.03 20.5-24 21.75-24.58 23-25.15 25.25-25.15L25.25-25.15Q28-25.15 29.25-24.15 30.5-23.15 30.87-21.65 31.25-20.15 31.25-18.6L31.25-18.6 31.25-6.2Q31.25-4.65 30.87-3.15 30.5-1.65 29.2-0.65 27.9 0.35 25.05 0.35ZM25.05-0.45L25.05-0.45Q27.65-0.45 28.77-1.38 29.9-2.3 30.17-3.68 30.45-5.05 30.45-6.35L30.45-6.35 30.45-18.45Q30.45-19.8 30.17-21.15 29.9-22.5 28.82-23.43 27.75-24.35 25.25-24.35L25.25-24.35Q23.25-24.35 22.12-23.8 21-23.25 20.52-22.38 20.05-21.5 19.95-20.48 19.85-19.45 19.85-18.45L19.85-18.45 19.85-6.35Q19.85-5.35 19.95-4.33 20.05-3.3 20.5-2.43 20.95-1.55 22.02-1 23.1-0.45 25.05-0.45ZM38.4 0L37.6 0 37.6-31.5 38.4-31.5 38.4 0ZM45.99 0L45.19 0 45.19-24.75 45.99-24.75 45.99 0ZM45.59-28.3L45.59-28.3Q44.89-28.3 44.89-29L44.89-29Q44.89-29.7 45.59-29.7L45.59-29.7Q46.29-29.7 46.29-29L46.29-29Q46.29-28.3 45.59-28.3ZM58.29 0.35L58.29 0.35Q55.49 0.35 54.22-0.65 52.94-1.65 52.64-3.15 52.34-4.65 52.34-6.2L52.34-6.2 52.34-18.6Q52.34-19.75 52.49-20.9 52.64-22.05 53.19-23.03 53.74-24 54.97-24.58 56.19-25.15 58.29-25.15L58.29-25.15Q60.04-25.15 61.09-24.78 62.14-24.4 62.72-23.95 63.29-23.5 63.49-23.3L63.49-23.3 63.49-31.5 64.29-31.5 64.29 0 63.64 0 63.54-2.5Q63.19-1.45 61.79-0.55 60.39 0.35 58.29 0.35ZM58.29-0.45L58.29-0.45Q60.39-0.45 61.52-1.28 62.64-2.1 63.07-3.45 63.49-4.8 63.49-6.35L63.49-6.35 63.49-21.85Q63.34-22.2 62.92-22.78 62.49-23.35 61.42-23.85 60.34-24.35 58.29-24.35L58.29-24.35Q56.34-24.35 55.29-23.8 54.24-23.25 53.79-22.38 53.34-21.5 53.24-20.48 53.14-19.45 53.14-18.45L53.14-18.45 53.14-6.35Q53.14-5.35 53.24-4.33 53.34-3.3 53.79-2.43 54.24-1.55 55.29-1 56.34-0.45 58.29-0.45ZM79.64 5.8L78.84 5.8 78.84-24.75 79.54-24.75 79.64-22.25Q79.89-23.25 81.06-24.2 82.24-25.15 84.84-25.15L84.84-25.15Q86.94-25.15 88.16-24.58 89.39-24 89.94-23.03 90.49-22.05 90.64-20.9 90.79-19.75 90.79-18.6L90.79-18.6 90.79-6.2Q90.79-4.65 90.49-3.15 90.19-1.65 88.94-0.65 87.69 0.35 84.84 0.35L84.84 0.35Q82.34 0.35 81.14-0.38 79.94-1.1 79.64-1.9L79.64-1.9 79.64 5.8ZM84.84-0.45L84.84-0.45Q86.79-0.45 87.84-1 88.89-1.55 89.34-2.43 89.79-3.3 89.89-4.33 89.99-5.35 89.99-6.35L89.99-6.35 89.99-18.45Q89.99-19.95 89.76-21.3 89.54-22.65 88.49-23.5 87.44-24.35 84.84-24.35L84.84-24.35Q82.44-24.35 81.34-23.48 80.24-22.6 79.94-21.2 79.64-19.8 79.64-18.15L79.64-18.15 79.64-6.35Q79.64-5.35 79.74-4.33 79.84-3.3 80.29-2.43 80.74-1.55 81.81-1 82.89-0.45 84.84-0.45ZM97.93 0L97.13 0 97.13-31.5 97.93-31.5 97.93-22.25Q98.48-23.4 99.76-24.28 101.03-25.15 103.38-25.15L103.38-25.15Q105.48-25.15 106.71-24.58 107.93-24 108.48-23.03 109.03-22.05 109.18-20.9 109.33-19.75 109.33-18.6L109.33-18.6 109.33 0 108.53 0 108.53-18.15Q108.53-19.65 108.28-21.08 108.03-22.5 106.96-23.43 105.88-24.35 103.38-24.35L103.38-24.35Q100.63-24.35 99.38-22.98 98.13-21.6 97.93-19.45L97.93-19.45 97.93 0ZM116.58 5.8L115.78 5.8 115.78-24.75 116.48-24.75 116.58-22.25Q116.83-23.25 118.01-24.2 119.18-25.15 121.78-25.15L121.78-25.15Q123.88-25.15 125.11-24.58 126.33-24 126.88-23.03 127.43-22.05 127.58-20.9 127.73-19.75 127.73-18.6L127.73-18.6 127.73-6.2Q127.73-4.65 127.43-3.15 127.13-1.65 125.88-0.65 124.63 0.35 121.78 0.35L121.78 0.35Q119.28 0.35 118.08-0.38 116.88-1.1 116.58-1.9L116.58-1.9 116.58 5.8ZM121.78-0.45L121.78-0.45Q123.73-0.45 124.78-1 125.83-1.55 126.28-2.43 126.73-3.3 126.83-4.33 126.93-5.35 126.93-6.35L126.93-6.35 126.93-18.45Q126.93-19.95 126.71-21.3 126.48-22.65 125.43-23.5 124.38-24.35 121.78-24.35L121.78-24.35Q119.38-24.35 118.28-23.48 117.18-22.6 116.88-21.2 116.58-19.8 116.58-18.15L116.58-18.15 116.58-6.35Q116.58-5.35 116.68-4.33 116.78-3.3 117.23-2.43 117.68-1.55 118.76-1 119.83-0.45 121.78-0.45ZM146.43 0.2L146.43 0.2Q145.28 0.2 144.05-0.2 142.83-0.6 141.98-1.83 141.13-3.05 141.13-5.6L141.13-5.6 141.13-7.3Q141.13-8.9 141.85-10.1 142.58-11.3 143.6-12.13 144.63-12.95 145.6-13.48 146.58-14 147.03-14.25L147.03-14.25Q149.03-15.35 150.15-16.18 151.28-17 151.78-17.88 152.28-18.75 152.28-20L152.28-20 152.28-20.7Q152.28-22.4 151.55-23.15 150.83-23.9 149.73-24.1 148.63-24.3 147.48-24.3L147.48-24.3Q145.28-24.3 144.2-23.55 143.13-22.8 142.8-21.55 142.48-20.3 142.48-18.75L142.48-18.75 142.48-16.7 141.68-16.7 141.68-18.85Q141.68-21.75 142.83-23.43 143.98-25.1 147.48-25.1L147.48-25.1Q150.18-25.1 151.35-24.4 152.53-23.7 152.8-22.58 153.08-21.45 153.08-20.1L153.08-20.1 153.08 0 152.33 0 152.33-3.65Q151.73-1.9 150.2-0.85 148.68 0.2 146.43 0.2ZM146.58-0.6L146.58-0.6Q148.78-0.6 150-1.55 151.23-2.5 151.75-4.15 152.28-5.8 152.28-7.85L152.28-7.85 152.28-17.05Q151.48-15.95 150.1-15.13 148.73-14.3 147.28-13.45L147.28-13.45Q146.03-12.75 144.8-11.98 143.58-11.2 142.75-10 141.93-8.8 141.93-6.9L141.93-6.9 141.93-5.6Q141.93-3.25 142.68-2.2 143.43-1.15 144.53-0.88 145.63-0.6 146.58-0.6ZM160.32 0L159.52 0 159.52-24.75 160.22-24.75 160.32-22.15Q160.87-23.3 162.15-24.23 163.42-25.15 165.77-25.15L165.77-25.15Q167.87-25.15 169.1-24.58 170.32-24 170.87-23.03 171.42-22.05 171.57-20.9 171.72-19.75 171.72-18.6L171.72-18.6 171.72 0 170.92 0 170.92-18.15Q170.92-19.65 170.67-21.08 170.42-22.5 169.35-23.43 168.27-24.35 165.77-24.35L165.77-24.35Q163.02-24.35 161.67-22.85 160.32-21.35 160.32-19.2L160.32-19.2 160.32 0ZM183.67 0.35L183.67 0.35Q180.87 0.35 179.6-0.65 178.32-1.65 178.02-3.15 177.72-4.65 177.72-6.2L177.72-6.2 177.72-18.6Q177.72-19.75 177.87-20.9 178.02-22.05 178.57-23.03 179.12-24 180.35-24.58 181.57-25.15 183.67-25.15L183.67-25.15Q185.42-25.15 186.47-24.78 187.52-24.4 188.1-23.95 188.67-23.5 188.87-23.3L188.87-23.3 188.87-31.5 189.67-31.5 189.67 0 189.02 0 188.92-2.5Q188.57-1.45 187.17-0.55 185.77 0.35 183.67 0.35ZM183.67-0.45L183.67-0.45Q185.77-0.45 186.9-1.28 188.02-2.1 188.45-3.45 188.87-4.8 188.87-6.35L188.87-6.35 188.87-21.85Q188.72-22.2 188.3-22.78 187.87-23.35 186.8-23.85 185.72-24.35 183.67-24.35L183.67-24.35Q181.72-24.35 180.67-23.8 179.62-23.25 179.17-22.38 178.72-21.5 178.62-20.48 178.52-19.45 178.52-18.45L178.52-18.45 178.52-6.35Q178.52-5.35 178.62-4.33 178.72-3.3 179.17-2.43 179.62-1.55 180.67-1 181.72-0.45 183.67-0.45ZM201.47 5.8L201.47 5.8Q200.52 5.8 199.74 5.73 198.97 5.65 199.02 5.65L199.02 5.65 199.02 4.85Q199.57 4.9 200.19 4.98 200.82 5.05 201.52 5.05L201.52 5.05Q203.12 5.05 203.72 4 204.32 2.95 204.32 1.6L204.32 1.6 204.32-24.75 205.12-24.75 205.12 1.65Q205.12 3.65 204.22 4.73 203.32 5.8 201.47 5.8ZM204.72-28.3L204.72-28.3Q204.02-28.3 204.02-29L204.02-29Q204.02-29.7 204.72-29.7L204.72-29.7Q205.42-29.7 205.42-29L205.42-29Q205.42-28.3 204.72-28.3ZM216.51 0.3L216.51 0.3Q213.91 0.3 212.26-0.95 210.61-2.2 210.61-4.95L210.61-4.95 210.61-8.3 211.41-8.3 211.41-4.95Q211.41-2.75 212.84-1.63 214.26-0.5 216.51-0.5L216.51-0.5Q218.86-0.5 220.29-1.5 221.71-2.5 221.71-4.8L221.71-4.8 221.71-6.7Q221.71-8.6 220.91-9.68 220.11-10.75 218.89-11.43 217.66-12.1 216.26-12.7L216.26-12.7Q214.71-13.4 213.41-14.1 212.11-14.8 211.34-15.83 210.56-16.85 210.56-18.5L210.56-18.5 210.56-20.2Q210.56-22.3 212.16-23.7 213.76-25.1 216.61-25.1L216.61-25.1Q219.21-25.1 220.89-23.93 222.56-22.75 222.56-20.05L222.56-20.05 222.56-16.8 221.76-16.8 221.76-19.75Q221.76-22.15 220.44-23.23 219.11-24.3 216.61-24.3L216.61-24.3Q214.11-24.3 212.74-23.05 211.36-21.8 211.36-19.75L211.36-19.75 211.36-18.85Q211.36-17.2 212.21-16.2 213.06-15.2 214.26-14.58 215.46-13.95 216.51-13.45L216.51-13.45Q218.01-12.8 219.39-12.03 220.76-11.25 221.64-10.03 222.51-8.8 222.51-6.7L222.51-6.7 222.51-4.8Q222.51-2.85 221.66-1.75 220.81-0.65 219.46-0.18 218.11 0.3 216.51 0.3ZM241.26 0.35L241.26 0.35Q238.46 0.35 237.18-0.65 235.91-1.65 235.61-3.15 235.31-4.65 235.31-6.2L235.31-6.2 235.31-18.6Q235.31-19.75 235.46-20.9 235.61-22.05 236.16-23.03 236.71-24 237.93-24.58 239.16-25.15 241.26-25.15L241.26-25.15Q243.01-25.15 244.06-24.78 245.11-24.4 245.68-23.95 246.26-23.5 246.46-23.3L246.46-23.3 246.46-31.5 247.26-31.5 247.26 0 246.61 0 246.51-2.5Q246.16-1.45 244.76-0.55 243.36 0.35 241.26 0.35ZM241.26-0.45L241.26-0.45Q243.36-0.45 244.48-1.28 245.61-2.1 246.03-3.45 246.46-4.8 246.46-6.35L246.46-6.35 246.46-21.85Q246.31-22.2 245.88-22.78 245.46-23.35 244.38-23.85 243.31-24.35 241.26-24.35L241.26-24.35Q239.31-24.35 238.26-23.8 237.21-23.25 236.76-22.38 236.31-21.5 236.21-20.48 236.11-19.45 236.11-18.45L236.11-18.45 236.11-6.35Q236.11-5.35 236.21-4.33 236.31-3.3 236.76-2.43 237.21-1.55 238.26-1 239.31-0.45 241.26-0.45ZM259.61 0.35L259.61 0.35Q257.46 0.35 256.23-0.23 255.01-0.8 254.46-1.75 253.91-2.7 253.76-3.88 253.61-5.05 253.61-6.2L253.61-6.2 253.61-18.6Q253.61-20.15 253.96-21.65 254.31-23.15 255.58-24.15 256.86-25.15 259.61-25.15L259.61-25.15Q262.41-25.15 263.66-24.2 264.91-23.25 265.23-21.75 265.56-20.25 265.56-18.6L265.56-18.6 265.56-13.15 254.41-13.15 254.41-6.35Q254.41-4.9 254.68-3.53 254.96-2.15 256.06-1.3 257.16-0.45 259.61-0.45L259.61-0.45Q262.06-0.45 263.13-1.3 264.21-2.15 264.48-3.5 264.76-4.85 264.76-6.35L264.76-6.35 264.76-8.35 265.56-8.35 265.56-6.2Q265.56-4.65 265.26-3.15 264.96-1.65 263.71-0.65 262.46 0.35 259.61 0.35ZM254.41-18.15L254.41-13.95 264.76-13.95 264.76-18.15Q264.76-19.9 264.51-21.3 264.26-22.7 263.18-23.53 262.11-24.35 259.61-24.35L259.61-24.35Q257.41-24.35 256.28-23.58 255.16-22.8 254.78-21.43 254.41-20.05 254.41-18.15L254.41-18.15ZM276 0L275.1 0 269.1-24.75 269.9-24.75 275.55-1.35 281.25-24.75 282.05-24.75 276 0ZM291.7 0.35L291.7 0.35Q289.55 0.35 288.33-0.23 287.1-0.8 286.55-1.75 286-2.7 285.85-3.88 285.7-5.05 285.7-6.2L285.7-6.2 285.7-18.6Q285.7-20.15 286.05-21.65 286.4-23.15 287.68-24.15 288.95-25.15 291.7-25.15L291.7-25.15Q294.5-25.15 295.75-24.2 297-23.25 297.33-21.75 297.65-20.25 297.65-18.6L297.65-18.6 297.65-13.15 286.5-13.15 286.5-6.35Q286.5-4.9 286.78-3.53 287.05-2.15 288.15-1.3 289.25-0.45 291.7-0.45L291.7-0.45Q294.15-0.45 295.23-1.3 296.3-2.15 296.58-3.5 296.85-4.85 296.85-6.35L296.85-6.35 296.85-8.35 297.65-8.35 297.65-6.2Q297.65-4.65 297.35-3.15 297.05-1.65 295.8-0.65 294.55 0.35 291.7 0.35ZM286.5-18.15L286.5-13.95 296.85-13.95 296.85-18.15Q296.85-19.9 296.6-21.3 296.35-22.7 295.28-23.53 294.2-24.35 291.7-24.35L291.7-24.35Q289.5-24.35 288.38-23.58 287.25-22.8 286.88-21.43 286.5-20.05 286.5-18.15L286.5-18.15ZM304.7 0L303.9 0 303.9-31.5 304.7-31.5 304.7 0ZM317.05 0.35L317.05 0.35Q314.9 0.35 313.67-0.23 312.45-0.8 311.9-1.75 311.35-2.7 311.2-3.88 311.05-5.05 311.05-6.2L311.05-6.2 311.05-18.6Q311.05-19.75 311.2-20.9 311.35-22.05 311.92-23.03 312.5-24 313.75-24.58 315-25.15 317.25-25.15L317.25-25.15Q320-25.15 321.25-24.15 322.5-23.15 322.87-21.65 323.25-20.15 323.25-18.6L323.25-18.6 323.25-6.2Q323.25-4.65 322.87-3.15 322.5-1.65 321.2-0.65 319.9 0.35 317.05 0.35ZM317.05-0.45L317.05-0.45Q319.65-0.45 320.77-1.38 321.9-2.3 322.17-3.68 322.45-5.05 322.45-6.35L322.45-6.35 322.45-18.45Q322.45-19.8 322.17-21.15 321.9-22.5 320.82-23.43 319.75-24.35 317.25-24.35L317.25-24.35Q315.25-24.35 314.12-23.8 313-23.25 312.52-22.38 312.05-21.5 311.95-20.48 311.85-19.45 311.85-18.45L311.85-18.45 311.85-6.35Q311.85-5.35 311.95-4.33 312.05-3.3 312.5-2.43 312.95-1.55 314.02-1 315.1-0.45 317.05-0.45ZM330.39 5.8L329.59 5.8 329.59-24.75 330.29-24.75 330.39-22.25Q330.64-23.25 331.82-24.2 332.99-25.15 335.59-25.15L335.59-25.15Q337.69-25.15 338.92-24.58 340.14-24 340.69-23.03 341.24-22.05 341.39-20.9 341.54-19.75 341.54-18.6L341.54-18.6 341.54-6.2Q341.54-4.65 341.24-3.15 340.94-1.65 339.69-0.65 338.44 0.35 335.59 0.35L335.59 0.35Q333.09 0.35 331.89-0.38 330.69-1.1 330.39-1.9L330.39-1.9 330.39 5.8ZM335.59-0.45L335.59-0.45Q337.54-0.45 338.59-1 339.64-1.55 340.09-2.43 340.54-3.3 340.64-4.33 340.74-5.35 340.74-6.35L340.74-6.35 340.74-18.45Q340.74-19.95 340.52-21.3 340.29-22.65 339.24-23.5 338.19-24.35 335.59-24.35L335.59-24.35Q333.19-24.35 332.09-23.48 330.99-22.6 330.69-21.2 330.39-19.8 330.39-18.15L330.39-18.15 330.39-6.35Q330.39-5.35 330.49-4.33 330.59-3.3 331.04-2.43 331.49-1.55 332.57-1 333.64-0.45 335.59-0.45ZM348.69 0L347.89 0 347.89-24.75 348.59-24.75 348.69-22.25Q349.24-23.4 350.52-24.28 351.79-25.15 354.14-25.15L354.14-25.15Q357.09-25.15 358.29-24.08 359.49-23 359.84-21.5L359.84-21.5Q360.39-23.2 361.84-24.18 363.29-25.15 365.59-25.15L365.59-25.15Q367.69-25.15 368.92-24.58 370.14-24 370.69-23.03 371.24-22.05 371.39-20.9 371.54-19.75 371.54-18.6L371.54-18.6 371.54 0 370.74 0 370.74-18.15Q370.74-19.65 370.49-21.08 370.24-22.5 369.17-23.43 368.09-24.35 365.59-24.35L365.59-24.35Q362.84-24.35 361.57-22.75 360.29-21.15 360.09-18.6L360.09-18.6 360.09 0 359.29 0 359.29-18.15Q359.29-19.65 359.04-21.08 358.79-22.5 357.72-23.43 356.64-24.35 354.14-24.35L354.14-24.35Q351.39-24.35 350.14-22.98 348.89-21.6 348.69-19.45L348.69-19.45 348.69 0ZM383.54 0.35L383.54 0.35Q381.39 0.35 380.16-0.23 378.94-0.8 378.39-1.75 377.84-2.7 377.69-3.88 377.54-5.05 377.54-6.2L377.54-6.2 377.54-18.6Q377.54-20.15 377.89-21.65 378.24-23.15 379.51-24.15 380.79-25.15 383.54-25.15L383.54-25.15Q386.34-25.15 387.59-24.2 388.84-23.25 389.16-21.75 389.49-20.25 389.49-18.6L389.49-18.6 389.49-13.15 378.34-13.15 378.34-6.35Q378.34-4.9 378.61-3.53 378.89-2.15 379.99-1.3 381.09-0.45 383.54-0.45L383.54-0.45Q385.99-0.45 387.06-1.3 388.14-2.15 388.41-3.5 388.69-4.85 388.69-6.35L388.69-6.35 388.69-8.35 389.49-8.35 389.49-6.2Q389.49-4.65 389.19-3.15 388.89-1.65 387.64-0.65 386.39 0.35 383.54 0.35ZM378.34-18.15L378.34-13.95 388.69-13.95 388.69-18.15Q388.69-19.9 388.44-21.3 388.19-22.7 387.11-23.53 386.04-24.35 383.54-24.35L383.54-24.35Q381.34-24.35 380.21-23.58 379.09-22.8 378.71-21.43 378.34-20.05 378.34-18.15L378.34-18.15ZM396.54 0L395.74 0 395.74-24.75 396.44-24.75 396.54-22.15Q397.09-23.3 398.36-24.23 399.64-25.15 401.99-25.15L401.99-25.15Q404.09-25.15 405.31-24.58 406.54-24 407.09-23.03 407.64-22.05 407.79-20.9 407.94-19.75 407.94-18.6L407.94-18.6 407.94 0 407.14 0 407.14-18.15Q407.14-19.65 406.89-21.08 406.64-22.5 405.56-23.43 404.49-24.35 401.99-24.35L401.99-24.35Q399.24-24.35 397.89-22.85 396.54-21.35 396.54-19.2L396.54-19.2 396.54 0ZM418.03 0L418.03 0Q416.08 0 415.23-1.18 414.38-2.35 414.38-4.65L414.38-4.65 414.38-23.95 412.48-23.95 412.48-24.65 414.38-24.75 414.53-29.6 415.18-29.6 415.18-24.75 420.98-24.75 420.98-23.95 415.18-23.95 415.18-4.4Q415.18-3 415.73-1.88 416.28-0.75 417.98-0.75L417.98-0.75Q418.68-0.75 419.38-0.83 420.08-0.9 420.98-1L420.98-1 420.98-0.2Q420.63-0.15 419.81-0.08 418.98 0 418.03 0Z"
                                opacity="1"
                                transform="matrix(1,0,0,1,0,0)"
                                fill="#00d1cd"
                                class="slogan-text-1"
                                data-fill-palette-color="secondary"
                                id="text-1"
                              ></path>
                            </svg>
                          </g>
                        </svg>
                      </g>
                    </svg>
                  </g>
                </svg>
              </g>
              <g transform="matrix(1,0,0,1,0,31.03912220258968)">
                <svg viewBox="0 0 161.30326275789474 173.1067778702349" height="173.1067778702349" width="161.30326275789474">
                  <g>
                    <svg
                      xmlns="http://www.w3.org/2000/svg"
                      xmlns:xlink="http://www.w3.org/1999/xlink"
                      xmlns:a="http://ns.adobe.com/AdobeSVGViewerExtensions/3.0/"
                      version="1.1"
                      x="0"
                      y="0"
                      viewBox="0 0 88.54000091552734 95.01899719238281"
                      enable-background="new -4.69 -3.287 100 100"
                      xml:space="preserve"
                      height="173.1067778702349"
                      width="161.30326275789474"
                      class="icon-icon-0"
                      data-fill-palette-color="accent"
                      id="icon-0"
                    >
                      <path
                        d="M76.286 40.738L88.54 39.255 88.191 36.371 75.701 37.883 86.526 31.223 85.003 28.749 75.198 34.782 82.701 28.517 79.913 25.175 72.87 31.055C72.947 30.825 73.02 30.593 73.108 30.367L56.174 34.42C56.064 34.188 55.941 33.97 55.824 33.745L74.238 15.031C74.717 16.016 75.505 16.663 76.4 16.663 77.862 16.663 79.046 14.948 79.046 12.833S77.861 9.003 76.4 9.003 73.754 10.718 73.754 12.833C73.754 12.995 73.774 13.149 73.787 13.306L55.045 32.354C53.324 29.521 51.148 27.349 48.684 26.152 55.047 24.654 59.747 19.477 59.747 13.301 59.748 5.955 53.107 0 44.915 0S30.082 5.955 30.082 13.301C30.082 19.183 34.345 24.165 40.249 25.92 37.537 27.071 35.137 29.371 33.286 32.463L15.573 27.922C15.657 28.149 15.726 28.381 15.801 28.612L8.854 22.622 6.01 25.918 13.414 32.303 3.706 26.113 2.144 28.562 12.86 35.395 0.396 33.684 0 36.562 12.12 38.226 3.214 44.923 5.831 48.403 11.793 43.918 12.02 43.976C12.056 44.001 12.09 44.029 12.13 44.042L12.142 44.007 29.383 48.427C29.395 49.191 29.437 49.943 29.497 50.686L10.963 56.3C10.983 55.327 10.706 54.484 10.124 54.058 9.082 53.299 7.497 54.149 6.582 55.956 5.666 57.764 5.767 59.844 6.808 60.603 7.85 61.362 9.435 60.512 10.35 58.705 10.472 58.464 10.573 58.218 10.66 57.972L29.653 52.218C30.144 56.124 31.28 59.675 32.892 62.594L23.14 77.148C19.879 77.579 17.157 79.224 15.714 81.466 15.368 81.421 15.029 81.577 14.702 82.057 11.911 84.698 13.912 86.969 16.734 89.048L19.647 86.061 19.62 86.038C18.726 85.146 17.731 83.168 16.746 82.125 18.136 79.607 21.236 77.852 24.85 77.852 29.759 77.852 33.74 81.091 33.74 85.085 33.74 88.403 30.993 91.191 27.251 92.046L28.098 92.721C31.939 91.715 34.769 88.975 35.077 85.682L44.496 71.627 53.739 85.42C54.048 88.713 56.878 91.453 60.718 92.459L61.565 91.784C57.823 90.93 55.076 88.141 55.076 84.823 55.076 80.829 59.056 77.59 63.966 77.59 67.58 77.59 70.681 79.346 72.07 81.863 71.087 82.906 70.091 84.884 69.197 85.776L69.17 85.799 72.083 88.786C74.905 86.707 76.906 84.435 74.115 81.795 73.788 81.316 73.448 81.159 73.102 81.204 71.66 78.962 68.938 77.316 65.676 76.886L55.78 62.115C56.565 60.613 57.222 58.95 57.741 57.171L70.13 62.692C69.752 63.133 69.592 63.646 69.762 64.101 70.065 64.913 71.281 65.222 72.478 64.791S74.4 63.353 74.097 62.541C73.793 61.729 72.577 61.42 71.38 61.851A3.4 3.4 0 0 0 70.93 62.053L57.984 56.284C58.445 54.507 58.771 52.625 58.927 50.66L75.822 46.615 83.662 50.119 85.438 46.143 76.595 42.193A29 29 0 0 0 76.286 40.738M75.594 37.896L75.478 37.91 75.482 37.939C75.425 37.772 75.371 37.604 75.313 37.44zM56.848 10.307C56.848 13.001 54.768 15.186 52.2 15.186 49.634 15.186 47.553 13.001 47.553 10.307S49.634 5.428 52.2 5.428C54.768 5.428 56.848 7.612 56.848 10.307M33.581 18.941A11.23 11.23 0 0 1 32.057 13.3C32.057 11.717 32.396 10.209 32.998 8.826A5.5 5.5 0 0 0 32.791 10.306C32.791 13.306 35.192 15.738 38.153 15.738S43.515 13.306 43.515 10.306 41.114 4.874 38.153 4.874A5.3 5.3 0 0 0 34.423 6.408C36.752 3.353 40.579 1.352 44.915 1.352 48.779 1.352 52.235 2.943 54.591 5.449A5.3 5.3 0 0 0 52.2 4.875C49.239 4.875 46.838 7.307 46.838 10.307S49.239 15.739 52.2 15.739C54.946 15.739 57.206 13.648 57.522 10.953 57.684 11.712 57.773 12.497 57.773 13.301 57.773 15.342 57.22 17.261 56.25 18.942H52.327L53.062 17.568 51.87 16.93 51.097 18.376 50.104 16.813 48.993 17.298 50.037 18.942H46.038L46.772 17.568 45.58 16.93 44.807 18.376 43.814 16.813 42.703 17.298 43.746 18.942H39.98L40.715 17.568 39.523 16.93 38.75 18.376 37.757 16.813 36.646 17.298 37.689 18.942H33.581zM33.505 10.307C33.505 7.613 35.587 5.428 38.153 5.428 40.721 5.428 42.801 7.613 42.801 10.307S40.72 15.186 38.153 15.186 33.505 13.001 33.505 10.307M14.326 33.278L14.403 33.157 14.479 33.222 16.914 30.397 32.278 34.336A28.3 28.3 0 0 0 30.254 40.131L24.819 38.456 26.409 36.018 24.616 35.231 23.453 37.014 21.959 35.086 20.288 35.684 21.686 37.491 13.864 35.08zM13.255 34.957C13.195 35.118 13.138 35.284 13.08 35.449L13.083 35.427 12.965 35.411zM12.217 38.288L12.176 38.233 12.229 38.24zM13.907 42.329L14.768 41.681 12.831 39.106 13.494 36.522 22.054 39.161 20.771 41.128 22.564 41.916 23.727 40.133 25.221 42.061 26.892 41.463 26.069 40.399 29.948 41.595A34 34 0 0 0 29.412 46.304zM29.921 78.092C28.581 77.491 27.052 77.126 25.421 77.055L33.951 64.324C34.941 65.78 36.06 67.028 37.283 68.021L32.714 74.272 31.163 71.622 29.985 72.949 31.214 75.055 29.126 75.468 29.186 77.424 30.616 77.142zM34.717 82.908C34.093 81.162 32.74 79.66 30.929 78.61L32.237 76.821 32.249 76.819 34.056 79.906 35.235 78.579 34.005 76.474 36.094 76.061 36.032 74.103 33.92 74.521 38.182 68.69C39.669 69.708 41.286 70.358 42.983 70.571zM43.516 35.491L41.582 34.457 40.738 36.035 43 37.245 40.738 38.455 41.583 40.033 43.516 38.999V50.853L40.892 49.45 40.048 51.028 42.31 52.238 40.048 53.448 40.893 55.026 43.517 53.623V61.012L40.893 59.609 40.049 61.187 42.311 62.397 40.049 63.607 40.894 65.185 43.518 63.782V68.282C42.042 68.157 40.63 67.653 39.328 66.802L38.027 65.816C34.712 62.916 32.292 57.755 31.576 51.639L37.996 49.695 37.684 48.21 31.435 50.104A33 33 0 0 1 31.352 47.876C31.352 36.947 36.741 28.045 43.519 27.47V35.491zM44.207 25.093C43.897 25.093 43.59 25.113 43.285 25.141 39.695 24.718 36.574 22.922 34.538 20.334H37.7L36.965 21.709 38.157 22.347 38.93 20.902 39.923 22.464 41.034 21.98 39.99 20.335H43.757L43.022 21.71 44.214 22.348 44.987 20.903 45.98 22.465 47.092 21.981 46.047 20.336H50.047L49.312 21.71 50.504 22.348 51.277 20.902 52.27 22.465 53.381 21.98 52.337 20.336H55.29C53.101 23.121 49.651 24.985 45.716 25.212A9.5 9.5 0 0 0 44.207 25.093M54.097 82.646L45.954 70.491C47.609 70.193 49.183 69.481 50.625 68.416L54.896 74.259 52.784 73.841 52.722 75.799 54.811 76.212 53.581 78.317 54.76 79.644 56.567 76.557 56.579 76.559 57.887 78.348C56.075 79.398 54.721 80.9 54.097 82.646M63.394 76.793C61.762 76.864 60.234 77.23 58.893 77.83L58.199 76.88 59.629 77.162 59.689 75.206 57.6 74.793 58.829 72.687 57.651 71.36 56.1 74.01 51.496 67.711C52.694 66.67 53.789 65.385 54.75 63.893zM55.896 56.351C53.958 63.088 49.797 67.867 44.897 68.281V63.781L47.521 65.184 48.366 63.606 46.104 62.396 48.366 61.186 47.521 59.608 44.897 61.011V53.622L47.521 55.025 48.366 53.447 46.104 52.237 48.366 51.027 47.521 49.449 44.897 50.852V38.26L48.212 40.033 49.056 38.455 46.794 37.245 49.056 36.035 48.211 34.457 44.897 36.23V27.467C48.308 27.756 51.366 30.156 53.563 33.86L50.776 36.693 51.868 37.767 54.328 35.267C56.042 38.738 57.065 43.112 57.065 47.872 57.065 50.558 56.736 53.118 56.145 55.466L52.363 53.78 51.982 54.605zM57 36.347L71.729 32.822 74.117 35.686 74.193 35.623 74.268 35.746 74.702 37.555 69.969 38.931 70.734 37.759 68.941 36.972 67.778 38.755 66.284 36.827 64.613 37.425 66.549 39.926 58.583 42.242A30.5 30.5 0 0 0 57 36.347M75.225 41.583L73.698 45.001 59.029 48.512C59.033 48.299 59.04 48.087 59.04 47.873A35 35 0 0 0 58.79 43.727L65.877 41.666 65.096 42.863 66.889 43.651 68.052 41.868 69.546 43.796 71.217 43.198 69.269 40.679 75.048 39 75.72 41.804z"
                        fill="#00d1cd"
                        data-fill-palette-color="accent"
                      ></path>
                      <path
                        d="M38.153 13.301C39.745 13.301 41.035 11.764 41.035 9.868S39.745 6.435 38.153 6.435 35.271 7.972 35.271 9.868 36.562 13.301 38.153 13.301M38.153 6.784C39.533 6.784 40.652 8.165 40.652 9.868S39.533 12.951 38.153 12.951 35.654 11.571 35.654 9.868 36.773 6.784 38.153 6.784"
                        fill="#00d1cd"
                        data-fill-palette-color="accent"
                      ></path>
                      <path
                        d="M48.991 10.307C48.991 12.203 50.282 13.74 51.874 13.74S54.757 12.203 54.757 10.307 53.466 6.874 51.874 6.874 48.991 8.411 48.991 10.307M54.372 10.307C54.372 12.01 53.254 13.39 51.874 13.39S49.375 12.01 49.375 10.307 50.494 7.223 51.874 7.223 54.372 8.604 54.372 10.307"
                        fill="#00d1cd"
                        data-fill-palette-color="accent"
                      ></path>
                      <path d="M57.082 83.881C56.762 84.338 56.463 84.812 56.206 85.312L64.038 79.379C63.517 79.475 62.998 79.61 62.482 79.788z" fill="#00d1cd" data-fill-palette-color="accent"></path>
                      <path
                        d="M65.466 89.408C65.459 89.414 65.451 89.42 65.445 89.427L67.734 91.773C69.952 90.14 71.524 88.356 69.331 86.283 68.107 84.49 66.668 88.209 65.466 89.408"
                        fill="#00d1cd"
                        data-fill-palette-color="accent"
                      ></path>
                      <path
                        d="M61.222 92.394A0.1 0.1 0 0 0 61.201 92.413L63.49 94.759C65.707 93.126 67.279 91.342 65.086 89.269 63.863 87.476 62.423 91.194 61.222 92.394"
                        fill="#00d1cd"
                        data-fill-palette-color="accent"
                      ></path>
                      <path d="M31.733 84.143L26.333 80.05A11 11 0 0 0 24.777 79.641L32.609 85.574A12 12 0 0 0 31.733 84.143" fill="#00d1cd" data-fill-palette-color="accent"></path>
                      <path d="M23.348 89.67C22.146 88.471 20.707 84.752 19.484 86.544 17.291 88.617 18.863 90.401 21.081 92.034L23.37 89.688z" fill="#00d1cd" data-fill-palette-color="accent"></path>
                      <path
                        d="M23.729 89.529C21.536 91.602 23.108 93.386 25.325 95.019L27.614 92.673C27.608 92.666 27.6 92.66 27.593 92.654 26.391 91.456 24.952 87.737 23.729 89.529"
                        fill="#00d1cd"
                        data-fill-palette-color="accent"
                      ></path>
                    </svg>
                  </g>
                </svg>
              </g>
          </svg>
        </svg>
      </g>
    </svg>
  </g>
</svg>
